<svg width="23" height="23" viewBox="0 0 23 23" fill="none" xmlns="http://www.w3.org/2000/svg">
<g clip-path="url(#clip0_2033_59592)">
<path d="M6.56457 16.6268L22.4729 4.55181C22.8083 4.31222 22.8562 3.88097 22.6166 3.54556L20.3166 0.526808C20.2208 0.383058 20.0291 0.287224 19.8375 0.239308C19.6458 0.191391 19.4541 0.287224 19.3104 0.383058L4.59998 11.5476C4.21665 11.4039 3.7854 11.3081 3.35415 11.3081C1.62915 11.3081 0.19165 12.7456 0.19165 14.4706V22.8081H6.51665V16.6268H6.56457ZM18.3521 5.89347L16.5312 7.28306L16.9625 3.97681L18.7833 2.58722L18.3521 5.89347ZM14.9021 8.52889L13.0812 9.91847L13.5125 6.61222L15.3333 5.22264L14.9021 8.52889ZM11.4521 11.1164L9.63123 12.506L10.0625 9.19972L11.8833 7.81014L11.4521 11.1164ZM19.9812 4.64764L20.2208 2.73097L21.0354 3.83306L19.9812 4.64764ZM8.43332 10.4456L8.00207 13.7518L6.56457 14.8539V14.4706C6.56457 14.2789 6.56457 14.1351 6.51665 13.9914C6.51665 13.9435 6.51665 13.8956 6.46873 13.8476C6.42082 13.7039 6.42082 13.6081 6.3729 13.4643C6.3729 13.4164 6.32498 13.3685 6.32498 13.3685C6.27707 13.2247 6.18123 13.081 6.13332 12.9372C6.13332 12.8893 6.0854 12.8893 6.0854 12.8414C6.03748 12.7456 5.94165 12.6497 5.84582 12.506L5.7979 12.4581L8.43332 10.4456ZM5.12707 21.3226H1.67707V14.4226C1.67707 13.4643 2.44373 12.6976 3.40207 12.6976C3.73748 12.6976 4.02498 12.7935 4.31248 12.9372C4.83957 13.2726 5.12707 13.7997 5.12707 14.3747V16.2914V21.3226Z" fill="#8C9298"/>
</g>
<defs>
<clipPath id="clip0_2033_59592">
<rect width="23" height="23" fill="white"/>
</clipPath>
</defs>
</svg>
