<svg width="71" height="70" viewBox="0 0 71 70" fill="none" xmlns="http://www.w3.org/2000/svg">
<path fill-rule="evenodd" clip-rule="evenodd" d="M24.5823 10.2095C28.1614 10.1549 31.8148 13.0293 33.7993 18.2295H24.5405C21.7156 18.2204 19.7684 16.2526 19.7684 14.2196C19.7684 12.1819 21.7246 10.2097 24.5601 10.2097L24.5823 10.2095ZM35.8101 21.1462H35.8H24.5702H24.5601H24.5359H14.6642C13.8588 21.1462 13.2059 21.7991 13.2059 22.6045V29.8962C13.2059 30.7016 13.8588 31.3545 14.6642 31.3545H25.6017H46.0184H56.9559C57.7613 31.3545 58.4142 30.7016 58.4142 29.8962V22.6045C58.4142 21.7991 57.7613 21.1462 56.9559 21.1462H47.0842H47.0601H47.05H35.8201H35.8101ZM43.1017 34.2712H28.5184V50.1407L34.5057 47.1471C35.3268 46.7365 36.2933 46.7365 37.1145 47.1471L43.1017 50.1407V34.2712ZM25.6017 34.2712V50.1407C25.6017 52.3089 27.8835 53.7191 29.8228 52.7494L35.8101 49.7558L41.7974 52.7494C43.7367 53.7191 46.0184 52.3089 46.0184 50.1407V34.2712H54.0392V55.417C54.0392 57.8332 52.0805 59.792 49.6642 59.792H21.9559C19.5397 59.792 17.5809 57.8332 17.5809 55.417V34.2712H25.6017ZM16.8517 14.2196C16.8517 15.7476 17.3823 17.1185 18.2647 18.2295H14.6642C12.248 18.2295 10.2892 20.1883 10.2892 22.6045V29.8962C10.2892 32.3124 12.248 34.2712 14.6642 34.2712V55.417C14.6642 59.4441 17.9288 62.7087 21.9559 62.7087H49.6642C53.6913 62.7087 56.9559 59.4441 56.9559 55.417V34.2712C59.3722 34.2712 61.3309 32.3124 61.3309 29.8962V22.6045C61.3309 20.1883 59.3722 18.2295 56.9559 18.2295H53.3554C54.2378 17.1185 54.7684 15.7476 54.7684 14.2196C54.7684 10.2209 51.1348 7.29835 47.0713 7.29299C42.3055 7.22558 38.2193 10.5661 35.8101 15.5467C33.4009 10.5661 29.3146 7.22558 24.5489 7.29299C20.4853 7.29835 16.8517 10.2209 16.8517 14.2196ZM51.8517 14.2196C51.8517 16.2526 49.9046 18.2204 47.0797 18.2295H37.8209C39.8054 13.0293 43.4587 10.1549 47.0378 10.2095L47.0601 10.2097C49.8956 10.2097 51.8517 12.1819 51.8517 14.2196Z" fill="#344C64" fill-opacity="0.6"/>
</svg>
