<svg width="25" height="17" viewBox="0 0 25 17" fill="none" xmlns="http://www.w3.org/2000/svg">
<path d="M25 4.38421V12.4199C24.9983 12.7139 24.924 13.0029 24.7838 13.2613C24.6436 13.5197 24.4417 13.7395 24.1962 13.9011C23.9506 14.0628 23.6689 14.1613 23.3762 14.1879C23.0834 14.2146 22.7886 14.1685 22.5179 14.0539L18.75 12.4289C18.9554 14.3753 18.3482 16.3574 16.0714 16.4289H2.67857C1.96817 16.4289 1.28687 16.1466 0.784535 15.6443C0.282206 15.142 0 14.4607 0 13.7503V3.03599C0 2.32559 0.282206 1.64429 0.784535 1.14196C1.28687 0.639628 1.96817 0.357422 2.67857 0.357422H16.0714C18.3482 0.42885 18.9464 2.41099 18.75 4.35742L22.5089 2.75028C22.7801 2.6337 23.0758 2.58614 23.3699 2.61185C23.6639 2.63756 23.9469 2.73574 24.1937 2.8976C24.4405 3.05947 24.6433 3.27997 24.784 3.5394C24.9247 3.79883 24.9989 4.08908 25 4.38421Z" fill="#8C9298"/>
</svg>
