<svg width="59" height="49" viewBox="0 0 59 49" fill="none" xmlns="http://www.w3.org/2000/svg">
<path fill-rule="evenodd" clip-rule="evenodd" d="M10.6717 0.666016C6.64461 0.666016 3.38005 3.93062 3.38005 7.95772V10.8743C3.38005 11.6798 4.03297 12.3327 4.83841 12.3327C5.64381 12.3327 6.29671 11.6798 6.29671 10.8743V7.95772C6.29671 5.54142 8.25551 3.58272 10.6717 3.58272H29.63C32.0463 3.58272 34.005 5.54142 34.005 7.95772V10.8743V41.4993H26.7134C26.7134 37.4723 23.4488 34.2077 19.4217 34.2077C15.3946 34.2077 12.13 37.4723 12.13 41.4993H10.6717C8.25551 41.4993 6.29671 39.5406 6.29671 37.1243V34.2623C6.29671 33.4568 5.64381 32.8039 4.83841 32.8039C4.03297 32.8039 3.38005 33.4568 3.38005 34.2623V37.1243C3.38005 41.1514 6.64461 44.416 10.6717 44.416H12.7368C13.862 46.9913 16.4317 48.791 19.4217 48.791C22.4118 48.791 24.9815 46.9913 26.1066 44.416H36.0701C37.1953 46.9913 39.765 48.791 42.755 48.791C45.7451 48.791 48.3148 46.9913 49.44 44.416H51.505C55.5321 44.416 58.7967 41.1514 58.7967 37.1243V31.291V25.1074C58.7967 23.6 58.3295 22.1297 57.4595 20.8987L50.6509 11.2658C49.831 10.1057 48.4988 9.41602 47.0782 9.41602H36.9217V7.95772C36.9217 3.93062 33.6571 0.666016 29.63 0.666016H10.6717ZM55.88 25.1074V29.8327H50.0467C49.2413 29.8327 48.5884 29.1798 48.5884 28.3743V19.6243C48.5884 18.8189 49.2413 18.166 50.0467 18.166H51.9563L55.0777 22.5822C55.5997 23.3207 55.88 24.2029 55.88 25.1074ZM45.6717 19.6243C45.6717 17.2583 47.5499 15.331 49.8966 15.2519L48.2691 12.9493C47.9958 12.5626 47.5518 12.3327 47.0782 12.3327H36.9217V37.1236C38.252 35.353 40.3698 34.2077 42.755 34.2077C46.7821 34.2077 50.0467 37.4723 50.0467 41.4993H51.505C53.9213 41.4993 55.88 39.5406 55.88 37.1243V32.7493H50.0467C47.6305 32.7493 45.6717 30.7906 45.6717 28.3743V19.6243ZM15.0467 41.4993C15.0467 39.0831 17.0055 37.1243 19.4217 37.1243C21.838 37.1243 23.7967 39.0831 23.7967 41.4993C23.7967 43.9156 21.838 45.8743 19.4217 45.8743C17.0055 45.8743 15.0467 43.9156 15.0467 41.4993ZM42.755 37.1243C40.3388 37.1243 38.38 39.0831 38.38 41.4993C38.38 43.9156 40.3388 45.8743 42.755 45.8743C45.1713 45.8743 47.13 43.9156 47.13 41.4993C47.13 39.0831 45.1713 37.1243 42.755 37.1243ZM1.92172 15.2493C1.1163 15.2493 0.463379 15.9023 0.463379 16.7077C0.463379 17.5131 1.1163 18.166 1.92172 18.166H19.4217C20.2271 18.166 20.88 17.5131 20.88 16.7077C20.88 15.9023 20.2271 15.2493 19.4217 15.2493H1.92172ZM6.29671 22.541C6.29671 21.7356 6.94961 21.0827 7.75501 21.0827H25.255C26.0605 21.0827 26.7134 21.7356 26.7134 22.541C26.7134 23.3464 26.0605 23.9993 25.255 23.9993H7.75501C6.94961 23.9993 6.29671 23.3464 6.29671 22.541ZM3.38005 26.916C2.57464 26.916 1.92172 27.5689 1.92172 28.3743C1.92172 29.1798 2.57464 29.8327 3.38005 29.8327H20.88C21.6855 29.8327 22.3384 29.1798 22.3384 28.3743C22.3384 27.5689 21.6855 26.916 20.88 26.916H3.38005Z" fill="#344C64" fill-opacity="0.6"/>
</svg>
