<svg width="32" height="33" viewBox="0 0 32 33" fill="none" xmlns="http://www.w3.org/2000/svg">
<g clip-path="url(#clip0_2033_59569)">
<path fill-rule="evenodd" clip-rule="evenodd" d="M15.9999 3.39062C12.1339 3.39062 8.99988 6.52464 8.99988 10.3906V10.5135C7.24774 10.753 5.96582 11.3451 5.1235 12.3125C3.99246 13.6115 3.89089 15.318 4.07025 16.8837C4.07157 16.8953 4.07309 16.9068 4.07481 16.9182L5.01478 23.1853C5.15585 24.4409 5.4886 25.8316 6.66 26.8654C7.82025 27.8893 9.60626 28.3906 12.2288 28.3906H19.7709C22.3935 28.3906 24.1795 27.8893 25.3397 26.8654C26.5112 25.8316 26.8439 24.4409 26.9849 23.1853L27.9249 16.9182C27.9267 16.9068 27.9283 16.8953 27.9295 16.8837C28.1089 15.318 28.0073 13.6115 26.8763 12.3125C26.034 11.3451 24.752 10.753 22.9999 10.5135V10.3906C22.9999 6.52464 19.8659 3.39062 15.9999 3.39062ZM20.9999 12.3906V14.3906C20.9999 14.9429 21.4476 15.3906 21.9999 15.3906C22.5521 15.3906 22.9999 14.9429 22.9999 14.3906V12.5356C24.2679 12.7491 24.9727 13.1719 25.3679 13.6259C25.9316 14.2733 26.1012 15.251 25.9444 16.6392L25.0043 22.9073C25.0024 22.92 25.0008 22.9326 24.9993 22.9454C24.8752 24.0648 24.6208 24.8325 24.0164 25.3658C23.3948 25.9144 22.2017 26.3906 19.7709 26.3906H12.2288C9.79809 26.3906 8.60494 25.9144 7.98337 25.3658C7.37898 24.8325 7.12458 24.0648 7.00042 22.9454C6.99901 22.9326 6.99736 22.92 6.99546 22.9073L6.05533 16.6392C5.89858 15.251 6.06817 14.2733 6.63185 13.6259C7.02712 13.1719 7.7319 12.7491 8.99988 12.5356V14.3906C8.99988 14.9429 9.44758 15.3906 9.99988 15.3906C10.5522 15.3906 10.9999 14.9429 10.9999 14.3906V12.3906H20.9999ZM20.9999 10.3906C20.9999 7.6292 18.7613 5.39062 15.9999 5.39062C13.2385 5.39062 10.9999 7.6292 10.9999 10.3906H20.9999Z" fill="#344C64" fill-opacity="0.6"/>
</g>
<defs>
<clipPath id="clip0_2033_59569">
<rect y="0.390625" width="32" height="32" rx="16" fill="white"/>
</clipPath>
</defs>
</svg>
