<svg width="16" height="20" viewBox="0 0 16 20" fill="none" xmlns="http://www.w3.org/2000/svg">
<path fill-rule="evenodd" clip-rule="evenodd" d="M5.60358 5.86531C5.60358 5.23265 5.85606 4.62591 6.30548 4.17855C6.75489 3.7312 7.36443 3.47988 8 3.47988C8.63557 3.47988 9.24511 3.7312 9.69453 4.17855C10.1439 4.62591 10.3964 5.23265 10.3964 5.86531V6.93979H5.60358V5.86531ZM1.748 20H14.252C14.4815 20.0001 14.7087 19.9552 14.9208 19.8679C15.1328 19.7806 15.3255 19.6525 15.4879 19.491C15.6502 19.3296 15.779 19.1378 15.8668 18.9268C15.9547 18.7158 16 18.4896 16 18.2612V8.68051C16.0001 8.45195 15.955 8.22561 15.8672 8.01442C15.7794 7.80323 15.6506 7.61133 15.4883 7.44968C15.326 7.28803 15.1332 7.1598 14.9211 7.07231C14.709 6.98482 14.4816 6.93979 14.252 6.93979H13.8923V5.86531C13.8923 4.30973 13.2715 2.81787 12.1665 1.71791C11.0615 0.61795 9.56275 0 8 0C6.43725 0 4.93852 0.61795 3.83349 1.71791C2.72846 2.81787 2.10767 4.30973 2.10767 5.86531V6.93979H1.748C1.51838 6.93979 1.29102 6.98482 1.07889 7.07231C0.866768 7.1598 0.674037 7.28803 0.51171 7.44968C0.349383 7.61133 0.220644 7.80323 0.132843 8.01442C0.0450418 8.22561 -9.82455e-05 8.45195 1.60548e-07 8.68051V18.2613C5.48011e-05 18.4897 0.0453127 18.7159 0.133192 18.9269C0.221071 19.1379 0.349848 19.3296 0.512169 19.4911C0.674491 19.6526 0.867175 19.7806 1.07922 19.8679C1.29127 19.9553 1.51852 20.0001 1.748 20Z" fill="#8C9298"/>
</svg>
