<svg width="32" height="33" viewBox="0 0 32 33" fill="none" xmlns="http://www.w3.org/2000/svg">
<path fill-rule="evenodd" clip-rule="evenodd" d="M3 9.39062C3 9.12541 3.10536 8.87105 3.29289 8.68352C3.48043 8.49598 3.73478 8.39062 4 8.39062H28C28.2652 8.39062 28.5196 8.49598 28.7071 8.68352C28.8946 8.87105 29 9.12541 29 9.39062C29 9.65584 28.8946 9.9102 28.7071 10.0977C28.5196 10.2853 28.2652 10.3906 28 10.3906H4C3.73478 10.3906 3.48043 10.2853 3.29289 10.0977C3.10536 9.9102 3 9.65584 3 9.39062ZM3 16.3906C3 16.1254 3.10536 15.8711 3.29289 15.6835C3.48043 15.496 3.73478 15.3906 4 15.3906H28C28.2652 15.3906 28.5196 15.496 28.7071 15.6835C28.8946 15.8711 29 16.1254 29 16.3906C29 16.6558 28.8946 16.9102 28.7071 17.0977C28.5196 17.2853 28.2652 17.3906 28 17.3906H4C3.73478 17.3906 3.48043 17.2853 3.29289 17.0977C3.10536 16.9102 3 16.6558 3 16.3906ZM4 22.3906C3.73478 22.3906 3.48043 22.496 3.29289 22.6835C3.10536 22.8711 3 23.1254 3 23.3906C3 23.6558 3.10536 23.9102 3.29289 24.0977C3.48043 24.2853 3.73478 24.3906 4 24.3906H28C28.2652 24.3906 28.5196 24.2853 28.7071 24.0977C28.8946 23.9102 29 23.6558 29 23.3906C29 23.1254 28.8946 22.8711 28.7071 22.6835C28.5196 22.496 28.2652 22.3906 28 22.3906H4Z" fill="#344C64" fill-opacity="0.6"/>
</svg>
