<svg width="27" height="27" viewBox="0 0 27 27" fill="none" xmlns="http://www.w3.org/2000/svg">
<path d="M25.3125 2.25H1.6875C1.38913 2.25 1.10298 2.36853 0.892005 2.5795C0.681026 2.79048 0.5625 3.07663 0.5625 3.375V23.625C0.5625 23.9234 0.681026 24.2095 0.892005 24.4205C1.10298 24.6315 1.38913 24.75 1.6875 24.75H25.3125C25.6109 24.75 25.897 24.6315 26.108 24.4205C26.319 24.2095 26.4375 23.9234 26.4375 23.625V3.375C26.4375 3.07663 26.319 2.79048 26.108 2.5795C25.897 2.36853 25.6109 2.25 25.3125 2.25ZM5.0625 22.5C4.84 22.5 4.62249 22.434 4.43748 22.3104C4.25248 22.1868 4.10828 22.0111 4.02314 21.8055C3.93799 21.6 3.91571 21.3738 3.95912 21.1555C4.00252 20.9373 4.10967 20.7368 4.267 20.5795C4.42434 20.4222 4.62479 20.315 4.84302 20.2716C5.06125 20.2282 5.28745 20.2505 5.49302 20.3356C5.69859 20.4208 5.87429 20.565 5.9979 20.75C6.12152 20.935 6.1875 21.1525 6.1875 21.375C6.1875 21.6734 6.06897 21.9595 5.858 22.1705C5.64702 22.3815 5.36087 22.5 5.0625 22.5ZM10.6875 22.5C10.465 22.5 10.2475 22.434 10.0625 22.3104C9.87748 22.1868 9.73328 22.0111 9.64814 21.8055C9.56299 21.6 9.54071 21.3738 9.58412 21.1555C9.62752 20.9373 9.73467 20.7368 9.892 20.5795C10.0493 20.4222 10.2498 20.315 10.468 20.2716C10.6863 20.2282 10.9125 20.2505 11.118 20.3356C11.3236 20.4208 11.4993 20.565 11.6229 20.75C11.7465 20.935 11.8125 21.1525 11.8125 21.375C11.8125 21.6734 11.694 21.9595 11.483 22.1705C11.272 22.3815 10.9859 22.5 10.6875 22.5ZM16.3125 22.5C16.09 22.5 15.8725 22.434 15.6875 22.3104C15.5025 22.1868 15.3583 22.0111 15.2731 21.8055C15.188 21.6 15.1657 21.3738 15.2091 21.1555C15.2525 20.9373 15.3597 20.7368 15.517 20.5795C15.6743 20.4222 15.8748 20.315 16.093 20.2716C16.3113 20.2282 16.5375 20.2505 16.743 20.3356C16.9486 20.4208 17.1243 20.565 17.2479 20.75C17.3715 20.935 17.4375 21.1525 17.4375 21.375C17.4375 21.6734 17.319 21.9595 17.108 22.1705C16.897 22.3815 16.6109 22.5 16.3125 22.5ZM21.9375 22.5C21.715 22.5 21.4975 22.434 21.3125 22.3104C21.1275 22.1868 20.9833 22.0111 20.8981 21.8055C20.813 21.6 20.7907 21.3738 20.8341 21.1555C20.8775 20.9373 20.9847 20.7368 21.142 20.5795C21.2993 20.4222 21.4998 20.315 21.718 20.2716C21.9363 20.2282 22.1625 20.2505 22.368 20.3356C22.5736 20.4208 22.7493 20.565 22.8729 20.75C22.9965 20.935 23.0625 21.1525 23.0625 21.375C23.0625 21.6734 22.944 21.9595 22.733 22.1705C22.522 22.3815 22.2359 22.5 21.9375 22.5ZM24.1875 18H2.8125V4.5H24.1875V18Z" fill="#8C9298"/>
<path d="M18.2081 16.2338C18.0331 15.3599 17.6184 14.552 17.0104 13.9003C16.4025 13.2486 15.6252 12.7789 14.7656 12.5437C15.9075 11.7675 15.75 10.6875 15.75 9.5625C15.75 8.96576 15.5129 8.39347 15.091 7.97151C14.669 7.54955 14.0967 7.3125 13.5 7.3125C12.9032 7.3125 12.3309 7.54955 11.909 7.97151C11.487 8.39347 11.25 8.96576 11.25 9.5625C11.25 10.6875 11.1037 11.7731 12.2344 12.5437C11.3747 12.7789 10.5975 13.2486 9.98952 13.9003C9.38157 14.552 8.96689 15.3599 8.79185 16.2338L8.66248 16.875H18.3375L18.2081 16.2338Z" fill="#8C9298"/>
</svg>
