<svg width="32" height="33" viewBox="0 0 32 33" fill="none" xmlns="http://www.w3.org/2000/svg">
<g clip-path="url(#clip0_2033_59566)">
<path fill-rule="evenodd" clip-rule="evenodd" d="M10.5 7.39062C7.46244 7.39062 5 9.85307 5 12.8906C5 16.7085 7.486 20.0821 10.2904 22.5816C11.6741 23.8149 13.0895 24.7934 14.2133 25.4604C14.7756 25.7938 15.2551 26.0436 15.6119 26.2062C15.7779 26.2818 15.9073 26.3341 16 26.3666C16.0927 26.3341 16.2221 26.2818 16.3881 26.2062C16.7449 26.0436 17.2244 25.7938 17.7867 25.4604C18.9104 24.7934 20.3259 23.8149 21.7096 22.5816C24.514 20.0821 27 16.7085 27 12.8906C27 9.85307 24.5376 7.39062 21.5 7.39062C19.5416 7.39062 17.8213 8.41348 16.8456 9.95887C16.6623 10.249 16.3432 10.4249 16 10.4249C15.6568 10.4249 15.3377 10.249 15.1544 9.95887C14.1787 8.41348 12.4584 7.39062 10.5 7.39062ZM3 12.8906C3 8.74849 6.35787 5.39062 10.5 5.39062C12.6739 5.39062 14.6311 6.31597 16 7.7917C17.3689 6.31597 19.3261 5.39062 21.5 5.39062C25.6421 5.39062 29 8.74849 29 12.8906C29 17.5728 25.986 21.4492 23.0404 24.0746C21.5491 25.4038 20.0271 26.4565 18.8072 27.1804C18.1975 27.5421 17.6535 27.8274 17.2173 28.0262C17.0004 28.125 16.7984 28.2078 16.6212 28.2681C16.4796 28.3161 16.2415 28.3906 16 28.3906C15.7585 28.3906 15.5204 28.3161 15.3788 28.2681C15.2016 28.2078 14.9996 28.125 14.7827 28.0262C14.3465 27.8274 13.8025 27.5421 13.1929 27.1804C11.9729 26.4565 10.4509 25.4038 8.95963 24.0746C6.014 21.4492 3 17.5728 3 12.8906Z" fill="#344C64" fill-opacity="0.6"/>
</g>
<defs>
<clipPath id="clip0_2033_59566">
<rect y="0.390625" width="32" height="32" rx="16" fill="white"/>
</clipPath>
</defs>
</svg>
