<svg width="20" height="20" viewBox="0 0 20 20" fill="none" xmlns="http://www.w3.org/2000/svg">
<path d="M15.2572 1.2124C13.7565 1.06178 12.3163 1.54455 11.2062 2.5531C10.6986 3.01564 10.2911 3.56834 10 4.17615C9.70887 3.56834 9.30141 3.01564 8.79379 2.55307C7.68441 1.54451 6.24824 1.05908 4.74352 1.21236C2.08363 1.46654 0 3.85474 0 6.64908C0 13.093 9.34848 18.4409 9.74652 18.6655L10.0087 18.8147L10.267 18.6588C10.6643 18.4194 20 12.7191 20 6.64908C20 3.85474 17.917 1.46654 15.2572 1.2124ZM9.99191 17.6112C8.48785 16.7022 1.03273 11.9285 1.03273 6.64908C1.03273 4.38053 2.70555 2.44416 4.84164 2.23975C4.98285 2.22631 5.12336 2.21959 5.2632 2.21959C6.31746 2.21959 7.31187 2.6015 8.09922 3.31689C8.97867 4.11701 9.48359 5.25732 9.48359 6.44603H10.5163C10.5163 5.25728 11.0213 4.11697 11.9007 3.31822C12.7923 2.506 13.9534 2.12412 15.1589 2.23975C17.2944 2.44416 18.9672 4.38053 18.9672 6.64908C18.9673 11.6124 11.4893 16.6524 9.99191 17.6112Z" fill="black"/>
</svg>
