<svg width="71" height="70" viewBox="0 0 71 70" fill="none" xmlns="http://www.w3.org/2000/svg">
<path fill-rule="evenodd" clip-rule="evenodd" d="M14.9634 10.209C10.9363 10.209 7.67175 13.4736 7.67175 17.5007V48.1257C7.67175 52.1527 10.9363 55.4173 14.9634 55.4173H33.9217C34.7272 55.4173 35.3801 54.7644 35.3801 53.959C35.3801 53.1536 34.7272 52.5007 33.9217 52.5007H14.9634C12.5472 52.5007 10.5884 50.5419 10.5884 48.1257V17.5007C10.5884 15.0844 12.5472 13.1257 14.9634 13.1257H16.4217V24.7923C16.4217 25.3447 16.7338 25.8497 17.2279 26.0967C17.722 26.3437 18.3132 26.2904 18.7551 25.959L23.7134 22.2402L28.6717 25.959C29.1136 26.2904 29.7049 26.3437 30.1989 26.0967C30.693 25.8497 31.0051 25.3447 31.0051 24.7923V13.1257H55.7967C58.213 13.1257 60.1717 15.0844 60.1717 17.5007V34.2715C60.1717 35.0769 60.8247 35.7298 61.6301 35.7298C62.4355 35.7298 63.0884 35.0769 63.0884 34.2715V17.5007C63.0884 13.4736 59.8238 10.209 55.7967 10.209H29.5467H17.8801H14.9634ZM19.3384 21.8757L22.8384 19.2507C23.3569 18.8618 24.0699 18.8618 24.5884 19.2507L28.0884 21.8757V13.1257H19.3384V21.8757ZM26.6301 33.5423C27.4355 33.5423 28.0884 34.1952 28.0884 35.0007C28.0884 35.8061 27.4355 36.459 26.6301 36.459H17.8801C17.0747 36.459 16.4217 35.8061 16.4217 35.0007C16.4217 34.1952 17.0747 33.5423 17.8801 33.5423H26.6301ZM25.1717 43.7507C25.1717 42.9452 24.5188 42.2923 23.7134 42.2923H17.8801C17.0747 42.2923 16.4217 42.9452 16.4217 43.7507C16.4217 44.5561 17.0747 45.209 17.8801 45.209H23.7134C24.5188 45.209 25.1717 44.5561 25.1717 43.7507ZM43.7029 35.4278C44.2725 35.9973 44.2725 36.9207 43.7029 37.4902L43.2758 37.9173H55.7937C59.8198 37.9173 63.0883 41.181 63.0883 45.209V49.584C63.0883 50.3894 62.4353 51.0423 61.6299 51.0423C60.8245 51.0423 60.1716 50.3894 60.1716 49.584V45.209C60.1716 42.7937 58.2109 40.834 55.7937 40.834H43.2758L43.7029 41.2611C44.2725 41.8306 44.2725 42.754 43.7029 43.3235C43.1334 43.893 42.2101 43.893 41.6406 43.3235L38.7239 40.4069C38.1544 39.8374 38.1544 38.914 38.7239 38.3445L41.6405 35.4278C42.2101 34.8583 43.1334 34.8583 43.7029 35.4278ZM57.6822 60.2195C57.1127 60.789 57.1127 61.7124 57.6822 62.2819C58.2517 62.8514 59.1751 62.8514 59.7446 62.2819L62.6613 59.3652C62.9348 59.0917 63.0884 58.7207 63.0884 58.334C63.0884 57.9472 62.9348 57.5763 62.6613 57.3028L59.7446 54.3861C59.1751 53.8166 58.2517 53.8166 57.6822 54.3861C57.1127 54.9557 57.1127 55.879 57.6822 56.4485L58.1093 56.8756H45.5915C43.1743 56.8756 41.2136 54.9159 41.2136 52.5006V48.1257C41.2136 47.3202 40.5606 46.6673 39.7552 46.6673C38.9498 46.6673 38.2969 47.3202 38.2969 48.1257V52.5006C38.2969 56.5287 41.5654 59.7923 45.5915 59.7923H58.1094L57.6822 60.2195Z" fill="#344C64" fill-opacity="0.6"/>
</svg>
