<svg width="32" height="32" viewBox="0 0 32 32" fill="none" xmlns="http://www.w3.org/2000/svg">
<path fill-rule="evenodd" clip-rule="evenodd" d="M12 10C12 7.79087 13.7908 6 16 6C17.0608 6 18.0783 6.42143 18.8284 7.17157C19.5786 7.92172 20 8.93913 20 10C20 12.2091 18.2092 14 16 14C13.7908 14 12 12.2091 12 10ZM16 4C12.6863 4 10 6.68629 10 10C10 13.3137 12.6863 16 16 16C19.3138 16 22 13.3137 22 10C22 8.40871 21.3679 6.88257 20.2427 5.75736C19.1175 4.63215 17.5914 4 16 4ZM12.2843 18C12.2667 18 12.249 18.0004 12.2314 18.0013C9.64061 18.1385 7.38629 19.8175 6.36579 22.2749C5.65748 23.7843 6.03996 25.2764 6.96684 26.3324C7.87239 27.3643 9.29711 28 10.7978 28H21.2015C22.7028 28 24.128 27.3644 25.0336 26.3324C25.9607 25.2761 26.3427 23.7839 25.6335 22.2747C24.613 19.8175 22.3587 18.1385 19.768 18.0013C19.7503 18.0004 19.7327 18 19.7151 18H12.2843ZM8.20536 23.0601C8.94472 21.2612 10.5475 20.1035 12.3121 20H19.6872C21.4519 20.1035 23.0547 21.2612 23.794 23.0601C23.8011 23.0775 23.8087 23.0945 23.8168 23.1115C24.1528 23.8141 24.0066 24.4707 23.5306 25.0132C23.0278 25.586 22.1632 26 21.2015 26H10.7978C9.83713 26 8.97292 25.5861 8.47001 25.0132C7.99371 24.4705 7.84727 23.8136 8.18283 23.1109C8.1908 23.0943 8.19832 23.0773 8.20536 23.0601Z" fill="#344C64" fill-opacity="0.6"/>
</svg>
