<svg width="70" height="70" viewBox="0 0 70 70" fill="none" xmlns="http://www.w3.org/2000/svg">
<path fill-rule="evenodd" clip-rule="evenodd" d="M33.0208 4.375H19.4792C17.8987 4.37499 16.6239 4.37497 15.5916 4.45932C14.5287 4.54616 13.5951 4.72964 12.7313 5.16975C11.3593 5.86882 10.2438 6.98431 9.54475 8.35632C9.10464 9.22008 8.92116 10.1537 8.83432 11.2166C8.74997 12.2489 8.74999 13.5237 8.75 15.1042V54.8958C8.74999 56.4763 8.74997 57.7511 8.83432 58.7834C8.92116 59.8463 9.10464 60.7799 9.54475 61.6437C10.2438 63.0157 11.3593 64.1312 12.7313 64.8303C13.5951 65.2704 14.5287 65.4538 15.5916 65.5407C16.6239 65.625 17.8987 65.625 19.4792 65.625H32.2917C33.0971 65.625 33.75 64.9721 33.75 64.1667C33.75 63.3613 33.0971 62.7083 32.2917 62.7083H19.5417C17.8841 62.7083 16.7287 62.7072 15.8291 62.6337C14.9466 62.5616 14.4395 62.4272 14.0555 62.2315C13.2323 61.812 12.563 61.1427 12.1435 60.3195C11.9478 59.9355 11.8134 59.4284 11.7413 58.5459C11.6678 57.6463 11.6667 56.4909 11.6667 54.8333V15.1667C11.6667 13.5091 11.6678 12.3537 11.7413 11.4541C11.8134 10.5716 11.9478 10.0645 12.1435 9.68046C12.563 8.85725 13.2323 8.18796 14.0555 7.76851C14.4395 7.57283 14.9466 7.43841 15.8291 7.3663C16.7287 7.2928 17.8841 7.29167 19.5417 7.29167H32.9583C34.6159 7.29167 35.7713 7.2928 36.6709 7.3663C37.5534 7.43841 38.0605 7.57283 38.4445 7.76851C39.2678 8.18796 39.937 8.85725 40.3565 9.68046C40.5522 10.0645 40.6866 10.5716 40.7587 11.4541C40.8322 12.3537 40.8333 13.5091 40.8333 15.1667V29.0545C40.8333 29.8599 41.4863 30.5128 42.2917 30.5128C43.0971 30.5128 43.75 29.8599 43.75 29.0545V15.1042C43.75 13.5238 43.75 12.2489 43.6657 11.2166C43.5788 10.1537 43.3954 9.22008 42.9553 8.35632C42.2562 6.98431 41.1407 5.86882 39.7687 5.16975C38.9049 4.72964 37.9713 4.54616 36.9084 4.45932C35.8761 4.37497 34.6013 4.37499 33.0208 4.375ZM21.875 11.6667C21.0696 11.6667 20.4167 12.3196 20.4167 13.125C20.4167 13.9304 21.0696 14.5833 21.875 14.5833H30.625C31.4304 14.5833 32.0833 13.9304 32.0833 13.125C32.0833 12.3196 31.4304 11.6667 30.625 11.6667H21.875ZM46.755 36.8955L46.0815 39.5608C45.9597 40.0432 45.6003 40.4301 45.1283 40.5872C44.3583 40.8436 43.6317 41.1964 42.9628 41.6316C42.5456 41.9032 42.0186 41.9431 41.5652 41.7375L39.0608 40.6019C38.4174 41.2512 37.8434 41.969 37.3507 42.7432L39.0151 44.9321C39.3162 45.3281 39.3946 45.8503 39.2232 46.3173C38.9511 47.0588 38.7689 47.8443 38.6902 48.661C38.6424 49.1566 38.345 49.5937 37.9015 49.82L35.4504 51.071C35.5576 51.9957 35.7636 52.8897 36.0574 53.7423L38.8103 53.8059C39.307 53.8174 39.7637 54.081 40.0222 54.5054C40.4417 55.1943 40.9468 55.8259 41.523 56.3853C41.8797 56.7316 42.0354 57.2359 41.936 57.7232L41.3855 60.421C42.1571 60.9019 42.9833 61.3025 43.8526 61.6113L45.6191 59.4983C45.9377 59.1173 46.4283 58.9245 46.9211 58.9869C47.3148 59.0367 47.7166 59.0625 48.1251 59.0625C48.5337 59.0625 48.9355 59.0367 49.3292 58.9869C49.822 58.9245 50.3126 59.1173 50.6312 59.4983L52.3976 61.6113C53.2669 61.3025 54.0932 60.9019 54.8647 60.421L54.3142 57.7232C54.2148 57.2359 54.3705 56.7316 54.7273 56.3853C55.3034 55.8259 55.8086 55.1943 56.2281 54.5054C56.4865 54.081 56.9432 53.8174 57.44 53.8059L60.1929 53.7423C60.4866 52.8897 60.6926 51.9957 60.7999 51.071L58.3488 49.82C57.9052 49.5937 57.6079 49.1566 57.5601 48.661C57.4814 47.8443 57.2992 47.0588 57.027 46.3173C56.8556 45.8503 56.9341 45.3281 57.2352 44.9321L58.8995 42.7432C58.4069 41.969 57.8329 41.2512 57.1895 40.6019L54.6851 41.7375C54.2316 41.9431 53.7047 41.9032 53.2874 41.6316C52.6186 41.1964 51.892 40.8436 51.1219 40.5872C50.6499 40.4301 50.2906 40.0432 50.1687 39.5608L49.4952 36.8955C49.0455 36.8475 48.5884 36.8229 48.1251 36.8229C47.6619 36.8229 47.2048 36.8475 46.755 36.8955ZM45.321 34.1566C46.2319 33.992 47.1691 33.9062 48.1251 33.9062C49.0811 33.9062 50.0184 33.992 50.9292 34.1566C51.4922 34.2583 51.9437 34.6798 52.0838 35.2344L52.8087 38.1033C53.281 38.2961 53.7386 38.5172 54.1794 38.7643L56.8731 37.5429C57.3937 37.3069 58.0043 37.3967 58.4348 37.7728C59.8477 39.0071 61.0374 40.4913 61.935 42.1573C62.2062 42.6608 62.1581 43.2764 61.812 43.7317L60.0208 46.0875C60.1625 46.5705 60.2757 47.0657 60.3582 47.571L62.9931 48.9157C63.5017 49.1753 63.812 49.7079 63.7871 50.2783C63.7025 52.213 63.2669 54.0589 62.5415 55.752C62.3166 56.2771 61.8058 56.6225 61.2347 56.6357L58.2727 56.7041C57.981 57.1193 57.6644 57.5156 57.3252 57.891L57.9172 60.7921C58.0314 61.3516 57.8085 61.9262 57.347 62.2624C55.8429 63.3581 54.1352 64.1934 52.2906 64.7006C51.7398 64.8521 51.1514 64.6681 50.785 64.2298L48.8843 61.9562C48.6331 61.9715 48.3799 61.9792 48.1251 61.9792C47.8703 61.9792 47.6172 61.9715 47.3659 61.9562L45.4652 64.2298C45.0989 64.6681 44.5104 64.8521 43.9597 64.7006C42.1151 64.1934 40.4074 63.3581 38.9032 62.2624C38.4417 61.9262 38.2189 61.3516 38.333 60.7921L38.925 57.891C38.5859 57.5156 38.2693 57.1193 37.9775 56.7041L35.0155 56.6357C34.4444 56.6225 33.9337 56.2771 33.7087 55.752C32.9834 54.0589 32.5477 52.213 32.4632 50.2783C32.4383 49.7079 32.7486 49.1753 33.2572 48.9157L35.892 47.571C35.9746 47.0657 36.0877 46.5705 36.2295 46.0875L34.4383 43.7317C34.0921 43.2764 34.044 42.6608 34.3153 42.1573C35.2129 40.4913 36.4026 39.0071 37.8155 37.7728C38.246 37.3967 38.8565 37.3069 39.3771 37.5429L42.0709 38.7643C42.5117 38.5172 42.9693 38.2961 43.4415 38.1033L44.1664 35.2344C44.3066 34.6798 44.7581 34.2583 45.321 34.1566ZM45.2083 49.5833C45.2083 47.9725 46.5142 46.6667 48.125 46.6667C49.7358 46.6667 51.0417 47.9725 51.0417 49.5833C51.0417 51.1942 49.7358 52.5 48.125 52.5C46.5142 52.5 45.2083 51.1942 45.2083 49.5833ZM48.125 43.75C44.9033 43.75 42.2917 46.3617 42.2917 49.5833C42.2917 52.805 44.9033 55.4167 48.125 55.4167C51.3467 55.4167 53.9583 52.805 53.9583 49.5833C53.9583 46.3617 51.3467 43.75 48.125 43.75Z" fill="#344C64" fill-opacity="0.6"/>
</svg>
