<svg width="18" height="17" viewBox="0 0 18 17" fill="none" xmlns="http://www.w3.org/2000/svg">
<path fill-rule="evenodd" clip-rule="evenodd" d="M2.30005 7.26562C2.30005 4.15903 4.81845 1.64062 7.92505 1.64062C11.0316 1.64062 13.55 4.15903 13.55 7.26562C13.55 10.3722 11.0316 12.8906 7.92505 12.8906C4.81845 12.8906 2.30005 10.3722 2.30005 7.26562ZM7.92505 0.140625C3.99002 0.140625 0.800049 3.3306 0.800049 7.26562C0.800049 11.2006 3.99002 14.3906 7.92505 14.3906C9.62245 14.3906 11.1811 13.7971 12.405 12.8062L16.0197 16.4209C16.3126 16.7138 16.7874 16.7138 17.0803 16.4209C17.3732 16.128 17.3732 15.6532 17.0803 15.3603L13.4656 11.7456C14.4565 10.5217 15.05 8.96303 15.05 7.26562C15.05 3.3306 11.86 0.140625 7.92505 0.140625Z" fill="#344C64" fill-opacity="0.6"/>
</svg>
