<svg width="71" height="70" viewBox="0 0 71 70" fill="none" xmlns="http://www.w3.org/2000/svg">
<path fill-rule="evenodd" clip-rule="evenodd" d="M14.7733 10.209C10.7462 10.209 7.48169 13.4736 7.48169 17.5007V48.1257C7.48169 52.1527 10.7462 55.4173 14.7733 55.4173C15.5787 55.4173 16.2316 54.7644 16.2316 53.959C16.2316 53.1536 15.5787 52.5007 14.7733 52.5007C12.3571 52.5007 10.3983 50.5419 10.3983 48.1257V17.5007C10.3983 15.0844 12.3571 13.1257 14.7733 13.1257H55.6066C58.0229 13.1257 59.9816 15.0844 59.9816 17.5007V48.1257C59.9816 50.5419 58.0229 52.5007 55.6066 52.5007H38.1066C37.3012 52.5007 36.6483 53.1536 36.6483 53.959C36.6483 54.7644 37.3012 55.4173 38.1066 55.4173H55.6066C59.6337 55.4173 62.8983 52.1527 62.8983 48.1257V17.5007C62.8983 13.4736 59.6337 10.209 55.6066 10.209H14.7733ZM54.1483 23.334C54.1483 22.5286 53.4954 21.8757 52.69 21.8757H17.69C16.8846 21.8757 16.2316 22.5286 16.2316 23.334C16.2316 24.1394 16.8846 24.7923 17.69 24.7923H52.69C53.4954 24.7923 54.1483 24.1394 54.1483 23.334ZM33.7316 40.834C33.7316 36.8069 30.4671 33.5423 26.44 33.5423C22.4129 33.5423 19.1483 36.8069 19.1483 40.834C19.1483 44.8611 22.4129 48.1257 26.44 48.1257C30.4671 48.1257 33.7316 44.8611 33.7316 40.834ZM26.44 30.6257C32.0779 30.6257 36.6483 35.1961 36.6483 40.834C36.6483 43.6189 35.5331 46.1434 33.725 47.9852C33.7294 48.0314 33.7316 48.0783 33.7316 48.1257V61.2507C33.7316 61.803 33.4196 62.308 32.9255 62.555C32.4314 62.8021 31.8402 62.7488 31.3983 62.4173L26.44 58.6986L21.4816 62.4173C21.0397 62.7488 20.4485 62.8021 19.9545 62.555C19.4604 62.308 19.1483 61.803 19.1483 61.2507V48.1257C19.1483 48.0783 19.1506 48.0314 19.155 47.9852C17.3468 46.1434 16.2316 43.6189 16.2316 40.834C16.2316 35.1961 20.8021 30.6257 26.44 30.6257ZM22.065 50.06V58.334L25.565 55.709C26.0835 55.3201 26.7965 55.3201 27.315 55.709L30.815 58.334V50.06C29.489 50.6899 28.0056 51.0423 26.44 51.0423C24.8743 51.0423 23.391 50.6899 22.065 50.06ZM52.69 30.6257C53.4954 30.6257 54.1483 31.2786 54.1483 32.084C54.1483 32.8894 53.4954 33.5423 52.69 33.5423H43.94C43.1346 33.5423 42.4816 32.8894 42.4816 32.084C42.4816 31.2786 43.1346 30.6257 43.94 30.6257H52.69ZM54.1483 40.834C54.1483 40.0286 53.4954 39.3757 52.69 39.3757H46.8566C46.0512 39.3757 45.3983 40.0286 45.3983 40.834C45.3983 41.6394 46.0512 42.2923 46.8566 42.2923H52.69C53.4954 42.2923 54.1483 41.6394 54.1483 40.834Z" fill="#344C64" fill-opacity="0.6"/>
</svg>
