<svg width="28" height="22" viewBox="0 0 28 22" fill="none" xmlns="http://www.w3.org/2000/svg">
<path d="M23.9667 8.37466H4.03333C2.38667 8.37466 1 7.03774 1 5.35579V1H27V5.35579C27 7.03774 25.6567 8.37466 23.9667 8.37466Z" stroke="#8C9298" stroke-width="2" stroke-miterlimit="10" stroke-linecap="round" stroke-linejoin="round"/>
<path d="M14 17.8194C15.7231 17.8194 17.12 16.4292 17.12 14.7143C17.12 12.9994 15.7231 11.6092 14 11.6092C12.2769 11.6092 10.88 12.9994 10.88 14.7143C10.88 16.4292 12.2769 17.8194 14 17.8194Z" stroke="#8C9298" stroke-width="2" stroke-miterlimit="10" stroke-linecap="round" stroke-linejoin="round"/>
<path d="M21.28 17.9919C17.25 22.0027 10.75 22.0027 6.72 17.9919C4.07667 15.3612 3.16667 11.6954 3.99 8.33154H23.9667C24.79 11.7385 23.88 15.4043 21.28 17.9919Z" stroke="#8C9298" stroke-width="2" stroke-miterlimit="10" stroke-linecap="round" stroke-linejoin="round"/>
</svg>
